Coordinates
version=1
nRows=17
nColumns=40
inDegrees=yes

Units are S.I. units (second, meters, Newtons, ...)
If the header above contains a line with 'inDegrees', this indicates whether rotational values are in degrees (yes) or radians (no).

endheader
time	pelvis_tilt	pelvis_list	pelvis_rotation	pelvis_tx	pelvis_ty	pelvis_tz	hip_flexion_r	hip_adduction_r	hip_rotation_r	knee_angle_r	knee_angle_r_beta	ankle_angle_r	subtalar_angle_r	mtp_angle_r	hip_flexion_l	hip_adduction_l	hip_rotation_l	knee_angle_l	knee_angle_l_beta	ankle_angle_l	subtalar_angle_l	mtp_angle_l	lumbar_extension	lumbar_bending	lumbar_rotation	arm_flex_r	arm_add_r	arm_rot_r	elbow_flex_r	pro_sup_r	wrist_flex_r	wrist_dev_r	arm_flex_l	arm_add_l	arm_rot_l	elbow_flex_l	pro_sup_l	wrist_flex_l	wrist_dev_l
      0.61500000	     -2.14334823	     -1.22889700	    -10.01586068	      0.23947846	      0.89727856	      0.22820825	    -19.60012749	     -2.96044402	     -9.38482925	     11.35024017	      0.19809906	     -1.25023606	      8.02000724	      0.00000000	     24.43941329	     -7.96233328	    -30.00660280	      7.17365687	      0.12520393	     -8.06819359	     10.77001633	      0.00000000	     10.84010272	     -0.17097630	      6.08542254	     33.23188981	    -13.83615558	     33.23188981	     78.58664684	     44.58444949	      0.00000000	      0.00000000	     33.23188981	    -13.83615558	     33.23188981	     78.58664684	     44.58444949	      0.00000000	      0.00000000
      0.62000000	     -1.99700419	     -0.91064272	    -10.07667550	      0.24736739	      0.89749321	      0.22745977	    -19.85692418	     -3.50854900	     -9.26280990	     11.79461096	      0.20585480	     -2.34799027	      7.58860439	      0.00000000	     24.20357429	     -7.67618909	    -29.98221688	      7.88795881	      0.13767085	     -8.54722646	     10.04102722	      0.00000000	     10.81830555	     -0.54555961	      6.34395147	     33.23753920	    -13.83707201	     33.23753920	     78.58110289	     44.58622697	      0.00000000	      0.00000000	     33.23753920	    -13.83707201	     33.23753920	     78.58110289	     44.58622697	      0.00000000	      0.00000000
      0.62500000	     -1.83584446	     -0.54024928	    -10.14030295	      0.25519201	      0.89782851	      0.22671684	    -20.08999949	     -4.09325927	     -9.07282314	     12.27045018	      0.21415976	     -3.51600359	      6.82221590	      0.00000000	     23.95468772	     -7.33519915	    -29.90116350	      8.60206667	      0.15013439	     -9.04160030	      9.16031858	      0.00000000	     10.78686162	     -0.94241073	      6.64991169	     33.24490436	    -13.83826638	     33.24490436	     78.57388357	     44.58853444	      0.00000000	      0.00000000	     33.24490436	    -13.83826638	     33.24490436	     78.57388357	     44.58853444	      0.00000000	      0.00000000
      0.63000000	     -1.68049413	     -0.21589303	    -10.16663628	      0.26308468	      0.89825006	      0.22590554	    -20.29085314	     -4.61552744	     -8.90595069	     12.78999083	      0.22322745	     -4.80590562	      6.04385439	      0.00000000	     23.69797757	     -7.02357938	    -29.79617926	      9.29684761	      0.16226060	     -9.52432890	      8.35215539	      0.00000000	     10.77402166	     -1.31546530	      6.93976536	     33.25108638	    -13.83926853	     33.25108638	     78.56783183	     44.59046244	      0.00000000	      0.00000000	     33.25108638	    -13.83926853	     33.25108638	     78.56783183	     44.59046244	      0.00000000	      0.00000000
      0.63500000	     -1.54523359	      0.09327394	    -10.19722330	      0.27093805	      0.89876360	      0.22511440	    -20.44554237	     -5.08779789	     -8.64270750	     13.31572913	      0.23240332	     -6.20426995	      4.88908477	      0.00000000	     23.44056606	     -6.71880810	    -29.53922239	      9.95354309	      0.17372210	    -10.02175631	      7.46569356	      0.00000000	     10.76591631	     -1.63640273	      7.25151345	     33.26049016	    -13.84079233	     33.26049016	     78.55863969	     44.59337946	      0.00000000	      0.00000000	     33.26049016	    -13.84079233	     33.26049016	     78.55863969	     44.59337946	      0.00000000	      0.00000000
      0.64000000	     -1.45226711	      0.30235955	    -10.13799789	      0.27861704	      0.89938743	      0.22414150	    -20.56897517	     -5.37732151	     -8.14182228	     13.81075760	      0.24104319	     -7.77556841	      3.42796051	      0.00000000	     23.22128328	     -6.45450956	    -29.07472825	     10.53476870	      0.18386640	    -10.50781734	      6.54910212	      0.00000000	     10.73355435	     -1.83397860	      7.56514514	     33.27678925	    -13.84343180	     33.27678925	     78.54274327	     44.59839429	      0.00000000	      0.00000000	     33.27678925	    -13.84343180	     33.27678925	     78.54274327	     44.59839429	      0.00000000	      0.00000000
      0.64500000	     -1.33404003	      0.37904144	    -10.07336478	      0.28628610	      0.90018022	      0.22311781	    -20.73146113	     -5.52030215	     -7.59467401	     14.23251262	      0.24840421	     -9.64515383	      1.93117715	      0.00000000	     22.96797044	     -6.32702338	    -28.54488313	     11.16575168	      0.19487913	    -10.90021277	      5.65552470	      0.00000000	     10.63638382	     -1.87973611	      7.83770032	     33.31182567	    -13.84909770	     33.31182567	     78.50874188	     44.60898408	      0.00000000	      0.00000000	     33.31182567	    -13.84909770	     33.31182567	     78.50874188	     44.60898408	      0.00000000	      0.00000000
      0.65000000	     -1.18285969	      0.67302860	     -9.95135497	      0.29421760	      0.90089281	      0.22199647	    -20.73521830	     -5.96646822	     -7.66184509	     15.05324292	      0.26272865	    -11.22324782	      0.99392201	      0.00000000	     22.71280023	     -5.97978931	    -28.30218278	     11.86736632	      0.20712462	    -11.12109242	      5.15064441	      0.00000000	     10.62098851	     -2.20142677	      8.03008041	     33.32348817	    -13.85098129	     33.32348817	     78.49747464	     44.61245360	      0.00000000	      0.00000000	     33.32348817	    -13.85098129	     33.32348817	     78.49747464	     44.61245360	      0.00000000	      0.00000000
      0.65500000	     -1.05011753	      0.92600425	     -9.80988629	      0.30207512	      0.90166365	      0.22076959	    -20.66693895	     -6.35851503	     -7.67926664	     15.95058514	      0.27839023	    -12.86359934	      0.00083293	      0.00000000	     22.45524623	     -5.64132334	    -27.97709313	     12.51819076	      0.21848365	    -11.28394401	      4.62008664	      0.00000000	     10.59347237	     -2.46314557	      8.15729900	     33.33275325	    -13.85247685	     33.33275325	     78.48854082	     44.61519118	      0.00000000	      0.00000000	     33.33275325	    -13.85247685	     33.33275325	     78.48854082	     44.61519118	      0.00000000	      0.00000000
      0.66000000	     -0.92310197	      1.14190171	     -9.63006553	      0.30993335	      0.90247176	      0.21943673	    -20.54468009	     -6.70695952	     -7.72400032	     16.93310533	      0.29553844	    -14.55920386	     -1.03862699	      0.00000000	     22.17698321	     -5.30070669	    -27.62029421	     13.11153178	      0.22883940	    -11.35653010	      4.08867628	      0.00000000	     10.55633761	     -2.69161179	      8.23943295	     33.34053710	    -13.85373271	     33.34053710	     78.48104794	     44.61747740	      0.00000000	      0.00000000	     33.34053710	    -13.85373271	     33.34053710	     78.48104794	     44.61747740	      0.00000000	      0.00000000
      0.66500000	     -0.92964152	      1.30441567	     -9.36055350	      0.31770603	      0.90317276	      0.21795524	    -20.23773643	     -6.91116613	     -7.68703462	     18.01653001	      0.31444777	    -16.24923406	     -2.62257889	      0.00000000	     22.03218347	     -4.95827858	    -27.00183580	     13.63235473	      0.23792947	    -11.48024506	      3.39843080	      0.00000000	     10.64722556	     -2.85922718	      8.20721309	     33.35599798	    -13.85622568	     33.35599798	     78.46619793	     44.62198198	      0.00000000	      0.00000000	     33.35599798	    -13.85622568	     33.35599798	     78.46619793	     44.62198198	      0.00000000	      0.00000000
      0.67000000	     -0.80657770	      1.44675268	     -9.15554228	      0.32548788	      0.90407058	      0.21657294	    -19.98151956	     -7.18367283	     -7.80642743	     19.19707829	      0.33505222	    -18.03957673	     -3.76645640	      0.00000000	     21.70171947	     -4.63481952	    -26.49085008	     14.13621187	      0.24672344	    -11.42241943	      2.80856790	      0.00000000	     10.61234070	     -3.07247879	      8.15530986	     33.37020810	    -13.85851514	     33.37020810	     78.45258775	     44.62608074	      0.00000000	      0.00000000	     33.37020810	    -13.85851514	     33.37020810	     78.45258775	     44.62608074	      0.00000000	      0.00000000
      0.67500000	     -0.65321623	      1.60497860	     -8.93454635	      0.33324500	      0.90501990	      0.21508644	    -19.69219815	     -7.49315415	     -7.96500566	     20.49135014	      0.35764153	    -19.73813739	     -4.77130054	      0.00000000	     21.31062217	     -4.26040404	    -26.06041017	     14.58453843	      0.25454822	    -11.27018354	      2.34423324	      0.00000000	     10.52738694	     -3.27344033	      8.10946350	     33.37961181	    -13.86002926	     33.37961181	     78.44360096	     44.62877211	      0.00000000	      0.00000000	     33.37961181	    -13.86002926	     33.37961181	     78.44360096	     44.62877211	      0.00000000	      0.00000000
      0.68000000	     -0.60323782	      1.79573404	     -8.67189174	      0.34100697	      0.90583054	      0.21354772	    -19.19098469	     -7.81626547	     -8.20751088	     21.98984793	      0.38379525	    -21.35905050	     -6.08562238	      0.00000000	     21.00532823	     -3.82349106	    -25.56256864	     14.94822679	      0.26089577	    -11.14289170	      1.77798622	      0.00000000	     10.58249267	     -3.49192959	      7.98497775	     33.39230917	    -13.86207250	     33.39230917	     78.43149209	     44.63237864	      0.00000000	      0.00000000	     33.39230917	    -13.86207250	     33.39230917	     78.43149209	     44.63237864	      0.00000000	      0.00000000
      0.68500000	     -0.41866581	      1.89656412	     -8.47477077	      0.34871017	      0.90687742	      0.21203820	    -18.80157904	     -8.11011392	     -8.39281842	     23.48705266	      0.40992640	    -22.95198288	     -6.91887913	      0.00000000	     20.48770172	     -3.47003864	    -25.20005748	     15.24701886	      0.26611068	    -10.82734725	      1.36988815	      0.00000000	     10.46126151	     -3.62650321	      7.87029687	     33.39937062	    -13.86320818	     33.39937062	     78.42477103	     44.63437081	      0.00000000	      0.00000000	     33.39937062	    -13.86320818	     33.39937062	     78.42477103	     44.63437081	      0.00000000	      0.00000000
      0.69000000	     -0.39522047	      2.14812932	     -8.22277417	      0.35632213	      0.90761371	      0.21048382	    -18.08646550	     -8.54380100	     -8.72655301	     25.30116436	      0.44158862	    -24.43179873	     -8.33251122	      0.00000000	     20.16403582	     -2.93329941	    -24.73408403	     15.50191282	      0.27055942	    -10.64388840	      0.84604190	      0.00000000	     10.54723232	     -3.92316677	      7.72758373	     33.41042678	    -13.86498551	     33.41042678	     78.41426524	     44.63747115	      0.00000000	      0.00000000	     33.41042678	    -13.86498551	     33.41042678	     78.41426524	     44.63747115	      0.00000000	      0.00000000
      0.69500000	     -0.45599123	      2.56257478	     -7.94701772	      0.36396512	      0.90810478	      0.20877418	    -17.14092510	     -9.24441139	     -9.31258041	     27.41979521	      0.47856571	    -25.45786461	     -9.16033662	      0.00000000	     19.85663466	     -2.15275650	    -24.19485681	     15.51684808	      0.27082009	    -10.56529087	      0.00521050	      0.00000000	     10.79072428	     -4.55366645	      7.19447664	     33.45639765	    -13.87236404	     33.45639765	     78.37082521	     44.65010718	      0.00000000	      0.00000000	     33.45639765	    -13.87236404	     33.45639765	     78.37082521	     44.65010718	      0.00000000	      0.00000000
